<svg xmlns="http://www.w3.org/2000/svg" viewBox="0 0 48 48">
  <rect width="48" height="48" rx="10" fill="#8b5cf6"/>
  <path d="M8 24 24 8l16 16-16 16L8 24Z" fill="none" stroke="#faf5ff" stroke-width="1.3"/>
  <circle cx="24" cy="8.5" r="2.5" fill="#faf5ff"/>
  <circle cx="39.5" cy="24" r="2.5" fill="#faf5ff"/>
  <circle cx="24" cy="39.5" r="2.5" fill="#faf5ff"/>
  <circle cx="8.5" cy="24" r="2.5" fill="#faf5ff"/>
  <path d="M21.937 27.5a2 2 0 0 0-1.437-1.437l-6.135-1.582a.5.5 0 0 1 0-.962l6.135-1.583a2 2 0 0 0 1.437-1.436l1.582-6.135a.5.5 0 0 1 .963 0l1.581 6.135a2 2 0 0 0 1.437 1.437l6.135 1.581a.5.5 0 0 1 0 .964L27.5 26.063a2 2 0 0 0-1.437 1.437l-1.582 6.135a.5.5 0 0 1-.963 0Z" fill="none" stroke="#faf5ff" stroke-width="1.8" stroke-linecap="round" stroke-linejoin="round"/>
</svg>
