<svg xmlns="http://www.w3.org/2000/svg" version="1.1" xmlns:xlink="http://www.w3.org/1999/xlink" xmlns:svgjs="http://svgjs.dev/svgjs" width="300" height="300"><svg xmlns="http://www.w3.org/2000/svg" width="300" height="300" viewBox="0 0 48 48" fill="none" aria-labelledby="medalSocialIconTitle">
  <title id="SvgjsTitle1006">Medal Social Icon</title>
  
  <!-- Circular background -->
  <circle cx="24" cy="24" r="23" fill="hsl(0, 0%, 10%)"></circle>
  
  <!-- Diamond shape -->
  <path d="M8 24L24 8L40 24L24 40L8 24Z" stroke="hsl(0, 0%, 90%)" stroke-width="1.3" fill="none"></path>
  
  <!-- Corner circles -->
  <circle cx="24" cy="8.5" r="2.5" fill="hsl(0, 0%, 90%)"></circle>
  <circle cx="39.5" cy="24" r="2.5" fill="hsl(0, 0%, 90%)"></circle>
  <circle cx="24" cy="39.5" r="2.5" fill="hsl(0, 0%, 90%)"></circle>
  <circle cx="8.5" cy="24" r="2.5" fill="hsl(0, 0%, 90%)"></circle>
  
  <!-- Sparkle icon -->
  <g transform="translate(12, 12) scale(1)">
    <path d="M9.937 15.5A2 2 0 0 0 8.5 14.063l-6.135-1.582a.5.5 0 0 1 0-.962L8.5 9.936A2 2 0 0 0 9.937 8.5l1.582-6.135a.5.5 0 0 1 .963 0L14.063 8.5A2 2 0 0 0 15.5 9.937l6.135 1.581a.5.5 0 0 1 0 .964L15.5 14.063a2 2 0 0 0-1.437 1.437l-1.582 6.135a.5.5 0 0 1-.963 0z" fill="none" stroke="hsl(0, 0%, 90%)" stroke-width="1.8" stroke-linecap="round" stroke-linejoin="round"></path>
  </g>
</svg><style>@media (prefers-color-scheme: light) { :root { filter: none; } }
@media (prefers-color-scheme: dark) { :root { filter: none; } }
</style></svg>